<svg width="270" height="186" viewBox="0 0 270 186" fill="none" xmlns="http://www.w3.org/2000/svg">
<g clip-path="url(#clip0_59_502)">
<path d="M269.25 101.4C267.66 94.8166 263.084 89.9497 257.168 87.0806C251.265 84.2248 245.033 82.6025 239.603 78.7412C234.58 75.1748 230.452 70.2946 227.52 64.8378C224.272 58.7777 223.076 52.2349 222.55 45.3971C221.945 37.6075 221.538 29.6301 217.988 22.5376C214.806 16.2094 208.89 11.4766 201.843 10.8598C198.201 10.538 194.953 11.8788 191.811 13.6083C188.932 15.1904 186.302 16.263 182.976 15.5122C179.492 14.7211 176.349 12.8977 173.273 11.1146C170.301 9.38502 167.33 7.69569 164.188 6.30133C140.903 -3.9821 112.583 -1.56878 91.4418 12.8575C89.6931 14.0508 88.0102 15.3647 86.3668 16.7054C84.4735 14.1983 81.0157 12.8709 77.9654 13.1525C72.8773 13.6217 69.4063 17.8719 66.9609 22.055C61.2285 31.8155 57.4288 42.595 52.8666 52.9321C48.804 62.1563 44.0708 71.3671 37.0894 78.6742C30.0554 86.0348 20.6023 89.8157 12.8189 96.1707C4.91713 102.593 -0.157858 112.554 -8.61206e-05 122.945C0.157686 132.92 5.23268 142.574 13.5288 147.923C22.088 153.433 32.9611 153.997 42.7561 152.911C48.0677 152.321 53.3005 151.194 58.0993 148.741C59.9532 147.789 61.6492 146.623 63.2138 145.309C63.0823 156.772 62.0699 168.208 60.0715 179.497C59.756 181.281 60.5448 183.104 62.3723 183.627C63.9632 184.069 66.1063 183.077 66.4218 181.281C68.7358 168.115 69.9059 154.761 69.8139 141.38C69.8008 140.375 69.4326 139.624 68.8936 139.074C69.0119 138.913 69.1434 138.739 69.2617 138.578C72.0884 134.476 74.0737 129.823 75.7698 125.131C77.6762 119.835 79.2276 114.391 80.4635 108.881C82.9878 97.6053 84.1711 85.9812 83.9345 74.4106C83.8819 71.5951 83.7241 68.7795 83.5006 65.964C83.356 64.154 82.0938 62.6122 80.2137 62.6122C78.5439 62.6122 76.7822 64.154 76.9268 65.964C78.5439 86.2493 76.0327 107.688 68.223 126.538C66.5927 130.48 64.5417 134.408 61.715 137.599C58.7173 140.978 54.9834 143.271 50.7235 144.585C46.3848 145.939 41.862 146.448 37.3392 146.609C32.8822 146.77 28.3988 146.502 24.0732 145.309C16.0006 143.07 9.75547 137.197 7.48092 128.911C5.18009 120.518 7.69129 111.281 13.3579 104.845C19.4453 97.9405 28.2411 94.5484 35.4197 89.0514C42.9401 83.2863 48.6725 75.6173 53.2347 67.2779C58.0599 58.4425 61.5703 48.9635 65.5935 39.7526C67.6577 35.0199 69.8402 30.3407 72.4171 25.876C73.4295 24.1197 74.5208 22.2829 76.0853 20.9824C77.2423 20.017 78.3993 19.6819 79.5169 19.883C80.8053 20.1109 81.2786 20.6606 81.4233 21.7868C81.6336 23.3689 83.4086 24.3208 84.8942 24.2135C86.0907 24.7498 87.5106 24.4549 88.5493 23.5298C106.009 7.93702 131.516 2.90927 153.683 9.50568C159.481 11.2352 164.714 13.8497 169.933 16.8931C175.981 20.4058 183.12 24.1331 190.22 21.7198C193.297 20.674 195.939 18.3143 199.134 17.6708C201.606 17.1613 204.183 17.8987 206.326 19.1724C211.822 22.4304 213.952 28.9329 214.964 34.9796C216.2 42.3671 215.818 49.9422 217.593 57.2492C219.053 63.2423 221.774 68.9672 225.443 73.8877C229.19 78.9289 233.804 83.2461 239.169 86.437C244.612 89.6548 250.923 90.9285 256.313 94.2267C266.056 100.193 264.609 113.788 258.522 121.993C252.053 130.735 240.76 134.945 230.241 133.926C218.816 132.813 209.836 124.407 204.551 114.485C197.859 101.922 197.109 87.2817 197.504 73.2844C197.609 69.4231 197.806 65.5752 198.003 61.7139C198.227 57.3967 191.653 57.4101 191.43 61.7139C190.614 77.6016 189.773 94.2535 195.203 109.457C198.687 119.218 204.577 128.214 212.873 134.113C212.4 134.636 212.071 135.347 212.045 136.245C211.506 152.093 212.742 167.967 215.621 183.546C215.95 185.33 218.054 186.335 219.671 185.893C221.498 185.383 222.3 183.56 221.972 181.763C219.276 167.163 218.185 152.307 218.606 137.465C219.197 137.747 219.789 138.028 220.394 138.27C231.609 142.895 245.269 140.938 255.222 134.1C265.464 127.061 272.34 114.15 269.25 101.4Z" fill="#49999E"/>
<path d="M113.135 38.5325C113.15 38.5325 113.15 38.5469 113.164 38.5469C113.15 38.5469 113.15 38.5469 113.135 38.5325Z" fill="#49999E"/>
<path d="M109.112 31.6411C104.642 32.3517 100.947 35.9449 99.6195 40.2889C99.1068 41.9648 100.224 44.0161 101.92 44.4183C103.708 44.8339 105.418 43.8686 105.97 42.072C106.022 41.9111 106.075 41.7503 106.128 41.5894C106.312 41.2542 106.483 40.9056 106.693 40.5838C106.746 40.5168 106.824 40.4095 106.89 40.3157C106.903 40.2889 106.93 40.2754 106.943 40.2486C107.193 39.9537 107.469 39.6855 107.745 39.4308C107.758 39.4174 107.784 39.404 107.797 39.3772C107.889 39.3101 107.995 39.2163 108.06 39.176C108.376 38.9615 108.705 38.7872 109.046 38.5995C109.073 38.5861 109.073 38.5861 109.086 38.5727C109.23 38.5191 109.375 38.4655 109.52 38.4118C109.783 38.3314 110.282 38.3046 110.558 38.1705C110.374 38.2241 110.019 38.1973 110.44 38.1705C110.479 38.1705 110.519 38.1705 110.558 38.1705C110.716 38.1571 110.861 38.1571 111.019 38.1437C111.216 38.1437 111.4 38.1437 111.597 38.1571C111.61 38.1571 111.636 38.1571 111.676 38.1571C111.755 38.1705 112.07 38.2241 112.11 38.2241C112.294 38.2643 112.491 38.318 112.675 38.3716C112.833 38.4118 112.978 38.4655 113.135 38.5191C113.122 38.5057 113.096 38.4923 113.096 38.4789C113.109 38.4923 113.135 38.5057 113.148 38.5191C113.175 38.5325 113.201 38.5325 113.227 38.5459C113.609 38.6666 113.319 38.6263 113.162 38.5325C113.372 38.7202 113.924 38.9079 114.121 39.0286C114.279 39.1358 114.437 39.2431 114.595 39.3503C114.845 39.5783 115.107 39.8196 115.331 40.0743C115.37 40.1146 115.436 40.1816 115.489 40.2352C115.581 40.3559 115.66 40.49 115.739 40.624C116.672 42.0854 118.697 42.8363 120.235 41.8307C121.668 40.8922 122.418 38.814 121.418 37.2454C118.736 33.0489 113.964 30.8635 109.112 31.6411ZM115.502 40.2486C115.594 40.3425 115.686 40.4363 115.725 40.5302C115.647 40.4363 115.568 40.3425 115.502 40.2486Z" fill="#49999E"/>
<path d="M148.069 42.1122C149.554 42.9167 151.75 42.5949 152.565 40.9056C152.762 40.4899 152.986 40.0877 153.223 39.7123C153.249 39.6721 153.407 39.4576 153.485 39.3503C153.591 39.2297 153.709 39.0956 153.709 39.0956C153.985 38.7872 154.274 38.5057 154.59 38.2375C154.642 38.1973 154.682 38.1571 154.721 38.1303C154.892 38.0096 155.05 37.9023 155.221 37.7817C155.563 37.5671 155.918 37.366 156.286 37.1783C156.325 37.1515 156.338 37.1515 156.378 37.1247C156.417 37.1113 156.444 37.1113 156.496 37.0845C156.667 37.0309 156.838 36.9638 157.009 36.9102C157.403 36.7895 157.798 36.7091 158.192 36.6286C158.245 36.6286 158.311 36.6152 158.39 36.6152C158.613 36.6018 158.837 36.5884 159.06 36.6018C159.244 36.6018 159.415 36.6152 159.599 36.6286C159.652 36.6286 159.665 36.6286 159.704 36.6286C160.138 36.7225 160.559 36.8029 160.98 36.937C161.164 36.9906 161.348 37.0711 161.532 37.1247C161.584 37.1515 161.637 37.1649 161.703 37.2051C162.071 37.3928 162.426 37.594 162.768 37.8085C162.965 37.9291 163.136 38.0632 163.32 38.1973C163.346 38.2241 163.359 38.2375 163.399 38.2777C163.727 38.5995 164.056 38.8945 164.359 39.2431C164.411 39.3101 164.464 39.3771 164.516 39.4442C164.556 39.4978 164.687 39.6989 164.74 39.7659C165.016 40.195 165.239 40.6374 165.45 41.0933C166.186 42.6887 168.553 43.2116 169.946 42.2999C171.55 41.2408 171.905 39.4174 171.13 37.7146C169 33.0757 164.069 29.9652 159.073 29.8981C154.077 29.8445 149.094 32.9416 146.885 37.5135C146.123 39.0956 146.412 41.2273 148.069 42.1122ZM161.532 37.1247C161.335 37.0577 161.374 37.0577 161.532 37.1247V37.1247ZM154.734 38.1034C154.866 37.9962 154.905 37.9828 154.734 38.1034V38.1034Z" fill="#49999E"/>
<path d="M139.089 62.8938C132.712 62.8536 126.336 62.8268 119.959 62.7866C119.657 62.7866 119.394 62.8268 119.131 62.8804C118.907 62.8 118.67 62.7195 118.447 62.6257C116.79 61.9821 114.845 63.3497 114.398 64.9719C113.885 66.8624 115.029 68.4444 116.698 69.1014C121.918 71.1527 127.335 72.4935 132.87 73.2309C132.87 81.4228 132.87 89.6012 132.87 97.7931C132.87 102.11 139.444 102.11 139.444 97.7931C139.444 89.7889 139.444 81.7847 139.444 73.7806C140.522 73.8208 141.587 73.8476 142.665 73.8342C145.689 73.794 149.028 73.5661 150.58 70.4824C152.131 67.4255 150.159 64.1541 147.122 63.2692C144.598 62.5452 141.679 62.9072 139.089 62.8938ZM145.071 69.6377C145.071 69.6243 145.071 69.6243 145.071 69.6377C145.084 69.6243 145.084 69.6243 145.071 69.6377ZM145.071 69.6377C145.124 69.8388 145.571 69.5036 145.071 69.6377V69.6377Z" fill="#49999E"/>
<path d="M176.376 89.2391C174.758 88.5151 172.852 88.7564 171.879 90.4457C171.064 91.8669 171.432 94.2936 173.062 95.031C176.665 96.6533 178.045 100.944 176.625 104.59C174.811 109.229 169.92 111.67 165.358 112.38C159.954 113.238 154.196 112.3 148.976 110.811C143.428 109.216 138.274 106.655 133.554 103.277C132.37 102.432 130.543 102.821 129.57 103.799C122.996 110.423 113.661 114.311 104.379 113.614C100.04 113.292 95.8726 111.267 94.032 107.057C92.3622 103.263 93.2168 98.7985 95.9647 95.7684C98.844 92.6177 94.2029 87.8581 91.3104 91.0222C84.4342 98.5572 85.3677 110.409 93.4666 116.617C100.948 122.342 112.504 120.907 120.643 117.542C124.876 115.799 128.768 113.412 132.213 110.396C140.732 115.946 150.896 119.258 161.006 119.339C166.291 119.379 171.879 118.306 176.257 115.102C180.359 112.099 183.383 107.661 183.725 102.418C184.054 97.1494 181.227 91.4245 176.376 89.2391Z" fill="#49999E"/>
</g>
<defs>
<clipPath id="clip0_59_502">
<rect width="270" height="186" fill="white"/>
</clipPath>
</defs>
</svg>
