<svg width="51" height="51" viewBox="0 0 51 51" fill="none" xmlns="http://www.w3.org/2000/svg">
<path fill-rule="evenodd" clip-rule="evenodd" d="M14.004 6.2681L33.4436 3.21332C36.6642 2.70723 38.2744 2.45418 39.3247 3.3523C40.375 4.25042 40.375 5.88048 40.375 9.14058V24.4991H25.4556L32.6559 15.4988L31.0941 14.2494L22.5941 24.8744L22.0944 25.4991L22.5941 26.1238L31.0941 36.7488L32.6559 35.4994L25.4556 26.4991H40.375V41.8576C40.375 45.1177 40.375 46.7478 39.3247 47.6459C38.2745 48.544 36.6642 48.291 33.4436 47.7849H33.4436L14.0041 44.7301C12.3913 44.4767 11.585 44.3499 11.105 43.7887C10.625 43.2274 10.625 42.4111 10.625 40.7786V10.2196C10.625 8.58709 10.625 7.77083 11.105 7.20954C11.585 6.64825 12.3913 6.52153 14.004 6.2681Z" fill="#F7F6DC"/>
</svg>
