<svg width="27" height="28" viewBox="0 0 27 28" fill="none" xmlns="http://www.w3.org/2000/svg">
<g clip-path="url(#clip0_1_245)">
<path d="M13.5 3.19082C17.107 3.19082 17.5342 3.20664 18.9527 3.26992C20.2711 3.32793 20.983 3.54941 21.4576 3.73398C22.0852 3.97656 22.5387 4.27187 23.008 4.74121C23.4826 5.21582 23.7727 5.66406 24.0152 6.2916C24.1998 6.76621 24.4213 7.4834 24.4793 8.79648C24.5426 10.2203 24.5584 10.6475 24.5584 14.2492C24.5584 17.8563 24.5426 18.2834 24.4793 19.702C24.4213 21.0203 24.1998 21.7322 24.0152 22.2068C23.7727 22.8344 23.4773 23.2879 23.008 23.7572C22.5334 24.2318 22.0852 24.5219 21.4576 24.7645C20.983 24.949 20.2658 25.1705 18.9527 25.2285C17.5289 25.2918 17.1018 25.3076 13.5 25.3076C9.89297 25.3076 9.46582 25.2918 8.04727 25.2285C6.72891 25.1705 6.01699 24.949 5.54238 24.7645C4.91484 24.5219 4.46133 24.2266 3.99199 23.7572C3.51738 23.2826 3.22734 22.8344 2.98477 22.2068C2.8002 21.7322 2.57871 21.015 2.5207 19.702C2.45742 18.2781 2.4416 17.851 2.4416 14.2492C2.4416 10.6422 2.45742 10.215 2.5207 8.79648C2.57871 7.47812 2.8002 6.76621 2.98477 6.2916C3.22734 5.66406 3.52266 5.21055 3.99199 4.74121C4.4666 4.2666 4.91484 3.97656 5.54238 3.73398C6.01699 3.54941 6.73418 3.32793 8.04727 3.26992C9.46582 3.20664 9.89297 3.19082 13.5 3.19082ZM13.5 0.759766C9.83496 0.759766 9.37617 0.775586 7.93652 0.838867C6.50215 0.902148 5.51602 1.13418 4.66172 1.46641C3.77051 1.81445 3.01641 2.27324 2.26758 3.02734C1.51348 3.77617 1.05469 4.53027 0.706641 5.41621C0.374414 6.27578 0.142383 7.25664 0.0791016 8.69102C0.0158203 10.1359 0 10.5947 0 14.2598C0 17.9248 0.0158203 18.3836 0.0791016 19.8232C0.142383 21.2576 0.374414 22.2438 0.706641 23.098C1.05469 23.9893 1.51348 24.7434 2.26758 25.4922C3.01641 26.241 3.77051 26.7051 4.65645 27.0479C5.51602 27.3801 6.49688 27.6121 7.93125 27.6754C9.3709 27.7387 9.82969 27.7545 13.4947 27.7545C17.1598 27.7545 17.6186 27.7387 19.0582 27.6754C20.4926 27.6121 21.4787 27.3801 22.333 27.0479C23.2189 26.7051 23.973 26.241 24.7219 25.4922C25.4707 24.7434 25.9348 23.9893 26.2775 23.1033C26.6098 22.2438 26.8418 21.2629 26.9051 19.8285C26.9684 18.3889 26.9842 17.9301 26.9842 14.265C26.9842 10.6 26.9684 10.1412 26.9051 8.70156C26.8418 7.26719 26.6098 6.28105 26.2775 5.42676C25.9453 4.53027 25.4865 3.77617 24.7324 3.02734C23.9836 2.27852 23.2295 1.81445 22.3436 1.47168C21.484 1.13945 20.5031 0.907422 19.0688 0.844141C17.6238 0.775586 17.165 0.759766 13.5 0.759766Z" fill="#DE5731"/>
<path d="M13.5 7.3252C9.67148 7.3252 6.56543 10.4313 6.56543 14.2598C6.56543 18.0883 9.67148 21.1943 13.5 21.1943C17.3285 21.1943 20.4346 18.0883 20.4346 14.2598C20.4346 10.4313 17.3285 7.3252 13.5 7.3252ZM13.5 18.758C11.0162 18.758 9.00176 16.7436 9.00176 14.2598C9.00176 11.776 11.0162 9.76152 13.5 9.76152C15.9838 9.76152 17.9982 11.776 17.9982 14.2598C17.9982 16.7436 15.9838 18.758 13.5 18.758Z" fill="#DE5731"/>
<path d="M22.3277 7.05095C22.3277 7.94744 21.6 8.6699 20.7088 8.6699C19.8123 8.6699 19.0898 7.94217 19.0898 7.05095C19.0898 6.15447 19.8176 5.43201 20.7088 5.43201C21.6 5.43201 22.3277 6.15974 22.3277 7.05095Z" fill="#DE5731"/>
</g>
<defs>
<clipPath id="clip0_1_245">
<rect width="27" height="27" fill="white" transform="translate(0 0.759766)"/>
</clipPath>
</defs>
</svg>
