<svg width="27" height="28" viewBox="0 0 27 28" fill="none" xmlns="http://www.w3.org/2000/svg">
<g clip-path="url(#clip0_1_243)">
<path d="M19.2066 0.759766H14.6563V19.151C14.6563 21.3424 12.9062 23.1424 10.7283 23.1424C8.55038 23.1424 6.80028 21.3424 6.80028 19.151C6.80028 16.9989 8.51149 15.238 10.6116 15.1598V10.5424C5.98356 10.6206 2.25 14.4163 2.25 19.151C2.25 23.925 6.06134 27.7598 10.7672 27.7598C15.473 27.7598 19.2843 23.8859 19.2843 19.151V9.72062C20.9956 10.9728 23.0957 11.7163 25.3125 11.7554V7.13803C21.8901 7.02064 19.2066 4.20324 19.2066 0.759766Z" fill="#DE5731"/>
</g>
<defs>
<clipPath id="clip0_1_243">
<rect width="27" height="27" fill="white" transform="translate(0 0.759766)"/>
</clipPath>
</defs>
</svg>
