<svg width="27" height="31" viewBox="0 0 27 31" fill="none" xmlns="http://www.w3.org/2000/svg">
<path d="M1.92857 28.0938C1.92857 28.8645 2.23335 29.6038 2.77587 30.1488C3.31839 30.6938 4.05419 31 4.82143 31H22.1786C22.9458 31 23.6816 30.6938 24.2241 30.1488C24.7666 29.6038 25.0714 28.8645 25.0714 28.0938V7.75001H1.92857V28.0938ZM18.3214 12.5938C18.3214 12.3368 18.423 12.0904 18.6039 11.9087C18.7847 11.7271 19.03 11.625 19.2857 11.625C19.5415 11.625 19.7867 11.7271 19.9676 11.9087C20.1484 12.0904 20.25 12.3368 20.25 12.5938V26.1563C20.25 26.4132 20.1484 26.6596 19.9676 26.8413C19.7867 27.0229 19.5415 27.125 19.2857 27.125C19.03 27.125 18.7847 27.0229 18.6039 26.8413C18.423 26.6596 18.3214 26.4132 18.3214 26.1563V12.5938ZM12.5357 12.5938C12.5357 12.3368 12.6373 12.0904 12.8181 11.9087C12.999 11.7271 13.2443 11.625 13.5 11.625C13.7557 11.625 14.001 11.7271 14.1819 11.9087C14.3627 12.0904 14.4643 12.3368 14.4643 12.5938V26.1563C14.4643 26.4132 14.3627 26.6596 14.1819 26.8413C14.001 27.0229 13.7557 27.125 13.5 27.125C13.2443 27.125 12.999 27.0229 12.8181 26.8413C12.6373 26.6596 12.5357 26.4132 12.5357 26.1563V12.5938ZM6.75 12.5938C6.75 12.3368 6.85159 12.0904 7.03243 11.9087C7.21327 11.7271 7.45854 11.625 7.71429 11.625C7.97003 11.625 8.2153 11.7271 8.39614 11.9087C8.57698 12.0904 8.67857 12.3368 8.67857 12.5938V26.1563C8.67857 26.4132 8.57698 26.6596 8.39614 26.8413C8.2153 27.0229 7.97003 27.125 7.71429 27.125C7.45854 27.125 7.21327 27.0229 7.03243 26.8413C6.85159 26.6596 6.75 26.4132 6.75 26.1563V12.5938ZM26.0357 1.93751H18.8036L18.2371 0.805284C18.117 0.563226 17.9322 0.359612 17.7033 0.217349C17.4744 0.0750852 17.2105 -0.000183334 16.9413 1.06155e-05H10.0527C9.78411 -0.00102658 9.52069 0.0739613 9.29258 0.216383C9.06448 0.358805 8.88092 0.562899 8.76295 0.805284L8.19643 1.93751H0.964286C0.708541 1.93751 0.463271 2.03957 0.282433 2.22125C0.101594 2.40293 0 2.64933 0 2.90626L0 4.84376C0 5.10069 0.101594 5.34709 0.282433 5.52877C0.463271 5.71044 0.708541 5.81251 0.964286 5.81251H26.0357C26.2915 5.81251 26.5367 5.71044 26.7176 5.52877C26.8984 5.34709 27 5.10069 27 4.84376V2.90626C27 2.64933 26.8984 2.40293 26.7176 2.22125C26.5367 2.03957 26.2915 1.93751 26.0357 1.93751Z" fill="#F7F6DC"/>
</svg>
