<svg width="27" height="32" viewBox="0 0 27 32" fill="none" xmlns="http://www.w3.org/2000/svg">
<path d="M1.92955 28.5938C1.92955 29.3645 2.23433 30.1038 2.77685 30.6488C3.31936 31.1938 4.05517 31.5 4.8224 31.5H22.1795C22.9468 31.5 23.6826 31.1938 24.2251 30.6488C24.7676 30.1038 25.0724 29.3645 25.0724 28.5938V8.25001H1.92955V28.5938ZM18.3224 13.0938C18.3224 12.8368 18.424 12.5904 18.6048 12.4087C18.7857 12.2271 19.0309 12.125 19.2867 12.125C19.5424 12.125 19.7877 12.2271 19.9685 12.4087C20.1494 12.5904 20.251 12.8368 20.251 13.0938V26.6563C20.251 26.9132 20.1494 27.1596 19.9685 27.3413C19.7877 27.5229 19.5424 27.625 19.2867 27.625C19.0309 27.625 18.7857 27.5229 18.6048 27.3413C18.424 27.1596 18.3224 26.9132 18.3224 26.6563V13.0938ZM12.5367 13.0938C12.5367 12.8368 12.6383 12.5904 12.8191 12.4087C13 12.2271 13.2452 12.125 13.501 12.125C13.7567 12.125 14.002 12.2271 14.1828 12.4087C14.3637 12.5904 14.4653 12.8368 14.4653 13.0938V26.6563C14.4653 26.9132 14.3637 27.1596 14.1828 27.3413C14.002 27.5229 13.7567 27.625 13.501 27.625C13.2452 27.625 13 27.5229 12.8191 27.3413C12.6383 27.1596 12.5367 26.9132 12.5367 26.6563V13.0938ZM6.75098 13.0938C6.75098 12.8368 6.85257 12.5904 7.03341 12.4087C7.21425 12.2271 7.45952 12.125 7.71526 12.125C7.97101 12.125 8.21628 12.2271 8.39711 12.4087C8.57795 12.5904 8.67955 12.8368 8.67955 13.0938V26.6563C8.67955 26.9132 8.57795 27.1596 8.39711 27.3413C8.21628 27.5229 7.97101 27.625 7.71526 27.625C7.45952 27.625 7.21425 27.5229 7.03341 27.3413C6.85257 27.1596 6.75098 26.9132 6.75098 26.6563V13.0938ZM26.0367 2.43751H18.8045L18.238 1.30528C18.118 1.06323 17.9332 0.859612 17.7042 0.717349C17.4753 0.575085 17.2114 0.499817 16.9423 0.500011H10.0537C9.78509 0.498973 9.52166 0.573961 9.29356 0.716383C9.06546 0.858805 8.8819 1.0629 8.76392 1.30528L8.1974 2.43751H0.965262C0.709518 2.43751 0.464248 2.53957 0.283409 2.72125C0.102571 2.90293 0.000976563 3.14933 0.000976562 3.40626L0.000976563 5.34376C0.000976563 5.60069 0.102571 5.84709 0.283409 6.02877C0.464248 6.21044 0.709518 6.31251 0.965262 6.31251H26.0367C26.2924 6.31251 26.5377 6.21044 26.7185 6.02877C26.8994 5.84709 27.001 5.60069 27.001 5.34376V3.40626C27.001 3.14933 26.8994 2.90293 26.7185 2.72125C26.5377 2.53957 26.2924 2.43751 26.0367 2.43751Z" fill="#F06A44"/>
</svg>
