<svg width="27" height="28" viewBox="0 0 27 28" fill="none" xmlns="http://www.w3.org/2000/svg">
<g clip-path="url(#clip0_1_249)">
<path d="M8.49393 25.2286C18.6801 25.2286 24.2531 16.7874 24.2531 9.46945C24.2531 9.23215 24.2478 8.98957 24.2372 8.75226C25.3214 7.96825 26.2569 6.99714 27 5.88457C25.9903 6.33378 24.9183 6.62716 23.8206 6.75468C24.9764 6.06188 25.8418 4.97351 26.2564 3.69134C25.1691 4.33573 23.98 4.7903 22.7401 5.03554C21.9047 4.14786 20.8001 3.56011 19.5971 3.36316C18.3942 3.16622 17.1598 3.37104 16.085 3.94597C15.0101 4.52089 14.1545 5.4339 13.6506 6.54383C13.1466 7.65376 13.0224 8.8988 13.297 10.0864C11.0953 9.97596 8.94143 9.40402 6.97498 8.40772C5.00853 7.41141 3.2734 6.01297 1.88209 4.30306C1.17495 5.52226 0.958564 6.96496 1.27691 8.33796C1.59526 9.71096 2.42445 10.9112 3.59596 11.6948C2.71646 11.6669 1.85622 11.4301 1.08633 11.004V11.0726C1.08554 12.352 1.52786 13.5923 2.3381 14.5825C3.14834 15.5727 4.27649 16.2517 5.53078 16.5042C4.71606 16.7271 3.86098 16.7596 3.0317 16.5991C3.38564 17.6995 4.07427 18.6619 5.00149 19.352C5.92871 20.0421 7.04826 20.4255 8.20389 20.4487C6.24198 21.9899 3.81845 22.8258 1.32363 22.8218C0.881198 22.8211 0.439199 22.794 0 22.7406C2.53446 24.3666 5.48272 25.2302 8.49393 25.2286Z" fill="#DE5731"/>
</g>
<defs>
<clipPath id="clip0_1_249">
<rect width="27" height="27" fill="white" transform="translate(0 0.759766)"/>
</clipPath>
</defs>
</svg>
