<svg width="16" height="11" viewBox="0 0 16 11" fill="none" xmlns="http://www.w3.org/2000/svg">
<path d="M10.4109 5.61698C10.4109 6.91117 9.33775 7.96031 8.01397 7.96031C6.69021 7.96031 5.61709 6.91117 5.61709 5.61698C5.61709 4.32277 6.69021 3.27364 8.01397 3.27364C9.33775 3.27362 10.4109 4.32278 10.4109 5.61698ZM8.01831 0.737793C6.6477 0.743997 5.22702 1.08449 3.88216 1.73639C2.88362 2.24034 1.91048 2.95136 1.06575 3.82897C0.650867 4.27695 0.121688 4.92563 0.0361328 5.61774C0.0462436 6.21725 0.676436 6.95724 1.06575 7.40652C1.85789 8.24965 2.80568 8.94082 3.88216 9.49962C5.13631 10.1207 6.52447 10.4783 8.01831 10.4982C9.39022 10.4919 10.8106 10.1475 12.154 9.49962C13.1525 8.99566 14.1261 8.28412 14.9709 7.40652C15.3857 6.95853 15.9149 6.30984 16.0005 5.61774C15.9904 5.01822 15.3602 4.2782 14.9709 3.82894C14.1787 2.9858 13.2304 2.29516 12.154 1.73636C10.9005 1.11573 9.50888 0.760587 8.01831 0.737793ZM8.0173 1.9494C10.0942 1.9494 11.7779 3.59199 11.7779 5.61827C11.7779 7.64453 10.0942 9.28711 8.0173 9.28711C5.94035 9.28711 4.2567 7.64452 4.2567 5.61827C4.2567 3.59199 5.94035 1.9494 8.0173 1.9494Z" fill="#F7F6DC"/>
</svg>
