<svg width="81" height="66" viewBox="0 0 81 66" fill="none" xmlns="http://www.w3.org/2000/svg">
<path opacity="0.5" d="M19.8581 66C16.0258 66 12.8903 65.2143 10.4516 63.6429C8.0129 62.0714 6.00968 60.0635 4.44194 57.619C2.7 54.6508 1.48064 51.5952 0.783871 48.4524C0.26129 45.1349 0 42.4286 0 40.3333C0 31.7778 2.17742 24.0079 6.53226 17.0238C10.8871 10.0397 17.6806 4.36508 26.9129 0L29.2645 4.71429C23.8645 6.98413 19.1613 10.5635 15.1548 15.4524C11.3226 20.3413 9.40645 25.3175 9.40645 30.381C9.40645 32.4762 9.66774 34.3095 10.1903 35.881C12.9774 33.6111 16.2 32.4762 19.8581 32.4762C24.3871 32.4762 28.3065 33.9603 31.6161 36.9286C34.9258 39.8968 36.5806 44 36.5806 49.2381C36.5806 54.127 34.9258 58.1429 31.6161 61.2857C28.3065 64.4286 24.3871 66 19.8581 66ZM64.2774 66C60.4452 66 57.3097 65.2143 54.871 63.6429C52.4323 62.0714 50.429 60.0635 48.8613 57.619C47.1194 54.6508 45.9 51.5952 45.2032 48.4524C44.6806 45.1349 44.4194 42.4286 44.4194 40.3333C44.4194 31.7778 46.5968 24.0079 50.9516 17.0238C55.3064 10.0397 62.1 4.36508 71.3323 0L73.6839 4.71429C68.2839 6.98413 63.5806 10.5635 59.5742 15.4524C55.7419 20.3413 53.8258 25.3175 53.8258 30.381C53.8258 32.4762 54.0871 34.3095 54.6097 35.881C57.3968 33.6111 60.6194 32.4762 64.2774 32.4762C68.8065 32.4762 72.7258 33.9603 76.0355 36.9286C79.3452 39.8968 81 44 81 49.2381C81 54.127 79.3452 58.1429 76.0355 61.2857C72.7258 64.4286 68.8065 66 64.2774 66Z" fill="#F06A44"/>
</svg>
