<svg width="386" height="151" viewBox="0 0 386 151" fill="none" xmlns="http://www.w3.org/2000/svg">
<g clip-path="url(#clip0_1_392)">
<path d="M157.96 110.287C157.644 109.568 157.342 108.849 157.054 108.13C153.62 99.9984 150.873 91.6456 148.4 83.1822C145.887 74.5943 143.222 65.8958 138.263 58.3728C137.508 57.2388 135.42 56.8792 134.761 58.3728C132.81 62.8534 130.846 67.3202 128.895 71.8008C125.228 71.8146 121.561 72.1604 117.962 72.8518C114.377 73.5433 110.531 74.456 107.289 76.2123C105.806 77.0144 104.542 78.1207 103.608 79.5313C102.688 80.8865 102.193 82.4907 101.287 83.8598C99.2676 86.8884 95.298 87.8149 92.0289 88.6723C91.452 88.8106 91.0674 89.1563 90.8477 89.5436C90.8477 89.5574 90.8339 89.5574 90.8339 89.5574C90.518 89.7925 90.257 90.152 90.1471 90.6637C88.2791 98.7952 91.768 107.715 98.8006 112.223C102.289 114.45 106.767 115.21 109.83 118.101C113.058 121.157 113.388 126.135 113.704 130.326C113.773 131.141 113.814 131.944 113.855 132.76C107.248 127.214 100.627 121.669 94.0206 116.123C89.8999 112.68 85.7792 109.222 81.6722 105.779C78.0186 102.723 73.9253 99.8186 70.9035 96.0985C68.3624 92.9732 66.5493 87.7734 69.681 84.3853C70.1068 83.9289 70.2579 83.4311 70.2442 82.9332C72.0847 82.6013 73.9528 82.2833 75.7934 81.9375C82.2217 80.7897 88.6912 79.5175 94.5838 76.5857C105.325 71.2615 114.212 58.2898 110.215 45.8989C109.775 44.5022 109.02 41.8331 107.413 41.3906C106.451 41.1279 105.201 41.2523 104.212 41.2108C103.141 41.1693 102.07 41.1279 101.012 41.0864C97.2485 40.9342 93.4712 40.7821 89.7214 40.6438C87.4 33.9644 82.6063 28.17 76.3428 24.8787C69.6947 21.3799 61.9753 20.8682 54.9151 23.0809C54.5718 16.0695 54.2284 9.05817 53.885 2.06064C53.8026 0.456464 51.6186 -0.843472 50.4236 0.608584C39.6411 13.7739 28.8723 27.036 19.9029 41.5427C10.9335 56.1324 3.8459 72.1189 1.23612 89.1563C-0.0138296 97.3432 -0.302279 105.585 0.329562 113.8C0.521862 116.303 0.810311 118.792 1.16744 121.281C1.33227 122.374 2.70583 122.982 3.66733 122.706C4.75245 122.402 5.19199 121.433 5.09584 120.41C5.10958 120.341 5.09584 120.272 5.08211 120.189C2.47233 102.418 4.79366 84.33 11.2494 67.6383C17.1283 52.3709 26.1526 38.5003 35.8912 25.4733C40.4652 19.3332 45.2727 13.3452 50.1077 7.4125C50.4098 13.5941 50.7258 19.7619 51.028 25.9435C51.1104 27.603 52.6625 28.3083 54.0773 27.6998C60.6017 24.8648 68.4448 25.1829 74.6945 28.5849C80.3261 31.6549 84.5293 36.9791 86.3149 43.1469C86.5621 44.032 87.3588 44.6128 88.2654 44.6404C92.7707 44.8202 97.2622 45 101.768 45.1798C101.781 45.2904 101.781 45.4149 101.809 45.5255C101.836 45.6776 101.877 45.8298 101.932 45.968C102.056 46.3138 102.193 46.6595 102.372 46.9776C102.441 47.102 102.523 47.2403 102.619 47.3648C102.839 47.6414 103.045 47.9594 103.306 48.2222C103.567 48.4711 103.883 48.7062 104.171 48.9136C104.295 48.9966 104.419 49.0934 104.556 49.1487C104.886 49.3285 105.229 49.4668 105.572 49.5774C105.723 49.6189 105.875 49.6604 106.026 49.6881C106.342 49.7849 106.657 49.7987 106.987 49.7434C107.949 56.7686 104.061 64.1948 98.9105 68.8276C91.4658 75.5347 80.9305 76.8899 71.4804 78.5632C65.2444 79.6696 58.9946 80.7759 52.7449 81.8961C50.1901 82.3524 51.2752 86.2799 53.83 85.8235C57.6348 85.1459 61.4259 84.4821 65.2444 83.8045C63.706 86.8607 63.706 90.5807 64.9697 93.8167C66.7828 98.4633 70.615 101.713 74.3099 104.825C83.1694 112.237 92.0152 119.663 100.861 127.076C105.243 130.754 109.624 134.419 114.02 138.098C114.02 141.32 113.841 144.542 113.525 147.75C113.498 148.137 113.457 148.539 113.415 148.926C113.292 150.018 114.432 150.959 115.435 150.959C116.63 150.959 117.344 150.018 117.467 148.926C117.577 147.875 117.673 146.824 117.756 145.773C117.907 143.864 118.003 141.928 118.044 140.02C118.072 138.748 118.086 137.475 118.058 136.203C118.044 135.027 118.017 133.838 117.948 132.677C117.715 128.071 117.467 123.148 115.448 118.93C113.47 114.796 109.666 112.749 105.668 111.02C102.029 109.43 98.7319 107.66 96.4793 104.23C94.7898 101.616 93.7871 98.5601 93.7322 95.4762C95.4766 95.4762 96.3282 94.121 96.3282 92.7519C96.3282 92.3923 96.2733 92.019 96.1496 91.6871C98.6358 90.8988 101.026 89.8478 102.99 88.05C104.185 86.9575 105.05 85.6161 105.751 84.164C106.451 82.7535 107.056 81.2599 108.361 80.2919C109.583 79.393 111.08 78.8951 112.509 78.425C114.349 77.8303 116.217 77.3325 118.086 76.9314C121.849 76.1293 125.681 75.7836 129.527 75.8113C129.596 75.8113 129.651 75.7974 129.706 75.7836C130.544 75.9772 131.601 75.673 131.945 74.857C133.566 71.1508 135.173 67.4585 136.794 63.7523C140.461 70.4317 142.631 77.7888 144.774 85.1044C147.48 94.3699 150.612 103.428 154.485 112.279C154.499 112.306 154.513 112.334 154.526 112.362C155.007 113.302 156.394 113.509 157.246 113.012C158.262 112.486 158.4 111.297 157.96 110.287Z" fill="#F7F6DC"/>
<path d="M112.701 89.1704C115.311 89.1704 115.311 85.0908 112.701 85.0908C110.091 85.0908 110.091 89.1704 112.701 89.1704Z" fill="#F7F6DC"/>
<path d="M73.7192 41.8332C73.7192 40.0216 72.2632 38.5557 70.4639 38.5557C68.6645 38.5557 67.2085 40.0216 67.2085 41.8332C67.2085 43.6448 68.6507 45.1107 70.4639 45.1107C72.2632 45.1245 73.7192 43.6586 73.7192 41.8332Z" fill="#F7F6DC"/>
<path d="M199.002 25.8604C209.029 25.8604 216.529 31.5026 218.26 40.2288H207.683C206.626 36.9098 203.26 34.5865 198.838 34.5865C192.451 34.5865 188.756 39.5512 188.756 46.8806C188.756 54.7217 192.904 59.064 198.838 59.064C203.151 59.064 206.626 56.8099 207.683 53.4771H218.26C216.529 62.2171 209.016 67.8455 199.002 67.8455C186.736 67.8455 178.399 59.4512 178.399 46.8114C178.399 34.2546 186.736 25.8604 199.002 25.8604Z" fill="#F7F6DC"/>
<path d="M222.174 59.0638C222.174 53.6013 226.377 50.2685 232.696 49.5909L241.377 48.692V48.1803C241.377 45.1933 239.591 44.0593 236.624 44.0593C233.547 44.0593 231.638 45.4145 231.473 47.5027H222.792C223.012 41.0169 228.273 36.7852 237.009 36.7852C245.8 36.7852 250.676 40.6711 250.676 48.9686V67.2922H242.668L242.215 62.8945C240.594 65.8816 236.501 67.8592 232.023 67.8592C226.377 67.8592 222.174 64.4157 222.174 59.0638ZM241.377 55.1087V54.3758L234.99 55.0534C232.421 55.33 231.405 56.5746 231.405 57.9852C231.405 59.6723 232.531 60.8616 234.88 60.8616C238.698 60.8616 241.322 58.0958 241.377 55.1087Z" fill="#F7F6DC"/>
<path d="M255.607 57.7641H264.233C264.343 59.9629 266.197 61.2075 268.821 61.2075C271.334 61.2075 272.571 60.1427 272.571 58.6215C272.571 56.9897 271.115 56.4227 269.933 56.2567L265.002 55.4131C258.958 54.4036 255.703 51.4165 255.703 46.6731C255.703 40.699 260.854 36.813 268.354 36.813C275.853 36.813 280.949 40.699 281.059 46.4519H272.886C272.722 44.5296 270.977 43.3542 268.464 43.3542C266.28 43.3542 264.879 44.3084 264.879 45.8296C264.879 47.4614 266.609 47.8624 267.9 48.0284L273.216 48.9273C279.315 49.8815 281.842 53.3803 281.842 57.6673C281.842 63.8074 276.691 67.8732 268.848 67.8732C260.868 67.8593 255.717 63.7936 255.607 57.7641Z" fill="#F7F6DC"/>
<path d="M285.331 59.0638C285.331 53.6013 289.534 50.2685 295.853 49.5909L304.534 48.692V48.1803C304.534 45.1933 302.748 44.0593 299.781 44.0593C296.704 44.0593 294.795 45.4145 294.63 47.5027H285.949C286.169 41.0169 291.43 36.7852 300.166 36.7852C308.956 36.7852 313.833 40.6711 313.833 48.9686V67.2922H305.825L305.371 62.8945C303.751 65.8816 299.657 67.8592 295.18 67.8592C289.534 67.8592 285.331 64.4157 285.331 59.0638ZM304.534 55.1087V54.3758L298.146 55.0534C295.578 55.33 294.561 56.5746 294.561 57.9852C294.561 59.6723 295.688 60.8616 298.037 60.8616C301.841 60.8616 304.479 58.0958 304.534 55.1087Z" fill="#F7F6DC"/>
<path d="M199.167 116.925H180.185L178.399 109.194L198.728 84.8413H209.703V108.738H214.689V116.911H209.703V124.572H199.167V116.925ZM199.167 108.807V97.4811L189.813 108.807H199.167Z" fill="#F7F6DC"/>
<path d="M265.744 97.578C265.744 106.429 259.59 111.504 250.291 111.504H241.446V124.586H231.597V83.7212H250.291C259.687 83.7212 265.744 89.2943 265.744 97.578ZM255.387 97.7577C255.387 94.259 252.984 92.6271 249.399 92.6271H241.446V102.999H249.399C253.313 102.999 255.387 100.911 255.387 97.7577Z" fill="#F7F6DC"/>
<path d="M269.315 116.358C269.315 110.895 273.519 107.562 279.837 106.885L288.518 105.986V105.474C288.518 102.487 286.732 101.353 283.765 101.353C280.689 101.353 278.779 102.708 278.614 104.797H269.934C270.153 98.3108 275.414 94.0791 284.15 94.0791C292.941 94.0791 297.817 97.9651 297.817 106.263V124.586H289.809L289.356 120.188C287.735 123.176 283.642 125.153 279.164 125.153C273.519 125.153 269.315 121.71 269.315 116.358ZM288.518 112.403V111.67L282.131 112.347C279.562 112.624 278.546 113.869 278.546 115.279C278.546 116.966 279.672 118.156 282.021 118.156C285.839 118.156 288.463 115.404 288.518 112.403Z" fill="#F7F6DC"/>
<path d="M307.116 114.837V102.211H301.182V94.66H307.116V85.6987H316.415V94.66H323.022V102.211H316.415V113.039C316.415 115.625 316.69 117.381 320.453 117.381C321.181 117.381 321.909 117.326 322.637 117.271V124.489C320.673 124.946 318.434 125.112 316.813 125.112C307.116 125.098 307.116 117.99 307.116 114.837Z" fill="#F7F6DC"/>
<path d="M326.318 116.358C326.318 110.895 330.521 107.562 336.84 106.885L345.521 105.986V105.474C345.521 102.487 343.735 101.353 340.768 101.353C337.691 101.353 335.782 102.708 335.617 104.797H326.936C327.156 98.3108 332.417 94.0791 341.153 94.0791C349.944 94.0791 354.82 97.9651 354.82 106.263V124.586H346.812L346.359 120.188C344.738 123.176 340.645 125.153 336.167 125.153C330.508 125.153 326.318 121.71 326.318 116.358ZM345.521 112.403V111.67L339.134 112.347C336.565 112.624 335.549 113.869 335.549 115.279C335.549 116.966 336.675 118.156 339.024 118.156C342.829 118.156 345.466 115.404 345.521 112.403Z" fill="#F7F6DC"/>
<path d="M359.737 115.058H368.363C368.473 117.257 370.328 118.501 372.951 118.501C375.465 118.501 376.701 117.437 376.701 115.915C376.701 114.284 375.245 113.717 374.064 113.551L369.133 112.707C363.089 111.698 359.833 108.71 359.833 103.967C359.833 97.9929 364.984 94.1069 372.484 94.1069C379.984 94.1069 385.08 97.9929 385.19 103.746H377.017C376.852 101.824 375.108 100.648 372.594 100.648C370.41 100.648 369.009 101.602 369.009 103.124C369.009 104.755 370.74 105.156 372.031 105.322L377.346 106.221C383.445 107.175 385.972 110.674 385.972 114.961C385.972 121.101 380.822 125.167 372.979 125.167C364.998 125.153 359.847 121.088 359.737 115.058Z" fill="#F7F6DC"/>
</g>
<defs>
<clipPath id="clip0_1_392">
<rect width="386" height="151" fill="white"/>
</clipPath>
</defs>
</svg>
