<svg width="148" height="148" viewBox="0 0 148 148" fill="none" xmlns="http://www.w3.org/2000/svg">
<g clip-path="url(#clip0_1_222)">
<path d="M73.62 147.24C114.279 147.24 147.24 114.279 147.24 73.62C147.24 32.9608 114.279 0 73.62 0C32.9608 0 0 32.9608 0 73.62C0 114.279 32.9608 147.24 73.62 147.24Z" fill="#F7F6DC"/>
<path d="M135.78 112.91C132.68 105.86 130.17 98.64 127.99 91.26C126.27 85.43 124.53 79.57 121.59 74.25C120.29 77.19 119 80.14 117.7 83.09C117.41 83.74 116.57 83.98 115.9 83.83C115.85 83.84 115.8 83.85 115.75 83.85C112.67 83.82 109.59 84.1 106.57 84.74C105.06 85.06 103.56 85.46 102.09 85.94C100.95 86.31 99.7398 86.71 98.7598 87.43C97.7098 88.2 97.2298 89.39 96.6598 90.51C96.0998 91.66 95.3998 92.74 94.4398 93.6C92.8498 95.03 90.9398 95.87 88.9498 96.49C89.0498 96.76 89.0998 97.05 89.0998 97.34C89.0998 98.42 88.4098 99.51 87.0098 99.51C87.0598 101.97 87.8598 104.4 89.2198 106.48C91.0198 109.22 93.6698 110.63 96.5898 111.89C99.7898 113.27 102.85 114.9 104.44 118.19C106.06 121.55 106.26 125.47 106.45 129.14C106.5 130.08 106.53 131.02 106.54 131.96C106.57 132.97 106.56 133.99 106.53 135C106.5 136.52 106.42 138.06 106.3 139.58C118.4 133.57 128.61 124.32 135.81 112.98C135.79 112.95 135.79 112.93 135.78 112.91ZM102.27 94.43C100.18 94.43 100.18 91.18 102.27 91.18C104.37 91.18 104.37 94.43 102.27 94.43Z" fill="#F06A44"/>
<path d="M147.24 73.62C147.24 86.66 143.84 98.92 137.86 109.55C135.11 103.07 132.91 96.42 130.91 89.67C128.89 82.83 126.75 75.9 122.78 69.9C122.17 69 120.5 68.7 119.97 69.9C118.4 73.47 116.83 77.03 115.27 80.6C112.32 80.61 109.39 80.89 106.5 81.44C103.62 81.99 100.54 82.72 97.94 84.12C96.74 84.76 95.74 85.64 94.99 86.76C94.25 87.84 93.86 89.12 93.13 90.21C91.51 92.63 88.33 93.36 85.7 94.05C85.23 94.16 84.93 94.43 84.75 94.74C84.75 94.75 84.74 94.75 84.74 94.75C84.49 94.93 84.28 95.23 84.19 95.63C82.69 102.11 85.49 109.22 91.14 112.81C93.94 114.59 97.53 115.19 99.98 117.5C102.57 119.93 102.84 123.9 103.09 127.24C103.14 127.89 103.18 128.53 103.21 129.18C97.91 124.76 92.6 120.34 87.3 115.93C83.99 113.18 80.69 110.43 77.39 107.68C74.46 105.25 71.18 102.93 68.75 99.97C66.71 97.48 65.26 93.33 67.77 90.64C68.11 90.28 68.23 89.88 68.22 89.49C69.7 89.23 71.19 88.97 72.67 88.7C77.82 87.79 83.01 86.77 87.74 84.44C96.36 80.2 103.49 69.86 100.28 59.99C99.92 58.87 99.32 56.75 98.04 56.4C97.27 56.19 96.26 56.29 95.48 56.26C94.62 56.23 93.76 56.19 92.92 56.16C89.9 56.04 86.87 55.92 83.86 55.8C82 50.47 78.15 45.86 73.13 43.24C67.79 40.45 61.6 40.04 55.94 41.81C55.66 36.22 55.39 30.64 55.11 25.06C55.04 23.78 53.29 22.75 52.34 23.91C43.68 34.38 35.04 44.95 27.85 56.5C20.63 68.11 14.95 80.84 12.86 94.42C11.86 100.94 11.62 107.51 12.13 114.06C4.46 102.45 0 88.55 0 73.62C0 33.03 33.02 0 73.62 0C114.21 0 147.24 33.03 147.24 73.62Z" fill="#F06A44"/>
<path d="M92.7498 124.67C85.6598 118.76 78.5498 112.85 71.4498 106.94C68.4898 104.46 65.4098 101.87 63.9598 98.17C62.9498 95.59 62.9398 92.63 64.1798 90.19C61.1198 90.73 58.0698 91.26 55.0198 91.8C52.9798 92.16 52.0998 89.04 54.1498 88.67C59.1698 87.79 64.1698 86.9 69.1798 86.02C76.7598 84.68 85.2098 83.6 91.1798 78.26C95.3098 74.56 98.4298 68.65 97.6598 63.05C97.3998 63.09 97.1398 63.08 96.8898 63.01C96.7698 62.99 96.6498 62.96 96.5298 62.92C96.2498 62.82 95.9798 62.71 95.7198 62.57C95.6198 62.52 95.5098 62.45 95.4198 62.38C95.1898 62.22 94.9398 62.03 94.7298 61.83C94.5198 61.62 94.3498 61.37 94.1798 61.15C94.0998 61.05 94.0298 60.94 93.9798 60.84C93.8298 60.58 93.7298 60.31 93.6198 60.03C93.5798 59.92 93.5498 59.8 93.5198 59.67C93.4898 59.57 93.4898 59.48 93.4898 59.39C89.8798 59.24 86.2698 59.1 82.6598 58.96C81.9398 58.93 81.2998 58.47 81.0998 57.76C79.6698 52.84 76.2898 48.6 71.7798 46.15C66.7698 43.43 60.4798 43.18 55.2398 45.44C54.1098 45.93 52.8598 45.36 52.7998 44.04C52.5598 39.12 52.3098 34.2 52.0598 29.28C48.1798 34.01 44.3198 38.77 40.6498 43.67C32.8398 54.07 25.5998 65.12 20.8798 77.28C15.6998 90.58 13.8398 105 15.9298 119.15C15.9398 119.21 15.9498 119.27 15.9398 119.32C29.4398 136.31 50.2798 147.23 73.6098 147.23C84.0098 147.23 93.9198 145.06 102.9 141.14C103.16 138.58 103.3 136.01 103.3 133.45C99.7898 130.53 96.2698 127.61 92.7498 124.67ZM68.3998 54.11C69.8398 54.11 71.0098 55.28 71.0098 56.72C71.0098 58.17 69.8398 59.34 68.3998 59.34C66.9498 59.34 65.7898 58.17 65.7898 56.72C65.7898 55.28 66.9498 54.11 68.3998 54.11Z" fill="#F06A44"/>
</g>
<defs>
<clipPath id="clip0_1_222">
<rect width="147.24" height="147.24" fill="white"/>
</clipPath>
</defs>
</svg>
