<svg width="144" height="56" viewBox="0 0 144 56" fill="none" xmlns="http://www.w3.org/2000/svg">
<g clip-path="url(#clip0_1_148)">
<path d="M58.9307 40.9016C58.8132 40.636 58.7001 40.3703 58.5913 40.1047C57.312 37.091 56.2851 33.9947 55.3626 30.8504C54.4227 27.667 53.4306 24.44 51.5812 21.6485C51.2984 21.2304 50.5239 21.091 50.2758 21.6485C49.5448 23.3077 48.8181 24.9669 48.0871 26.6262C46.7164 26.6305 45.3501 26.7612 44.0099 27.0181C42.674 27.275 41.238 27.6147 40.0283 28.2636C39.4714 28.5641 39.0058 28.9735 38.6533 29.4917C38.3096 29.9969 38.1268 30.5891 37.7874 31.0943C37.0346 32.2179 35.5551 32.5619 34.3324 32.8798C34.1148 32.9321 33.9756 33.0584 33.8886 33.2021C33.8886 33.2064 33.8842 33.2064 33.8842 33.2064C33.7667 33.2892 33.671 33.4286 33.6318 33.6158C32.9356 36.6294 34.2367 39.9392 36.8605 41.6115C38.1616 42.4389 39.8325 42.722 40.9726 43.7933C42.1779 44.9256 42.3041 46.772 42.4173 48.3268C42.4434 48.6272 42.4564 48.9277 42.4738 49.2282C40.0066 47.1727 37.5394 45.1172 35.0721 43.0616C33.5317 41.7857 32.0001 40.5009 30.464 39.225C29.102 38.0927 27.5747 37.017 26.4477 35.6365C25.4991 34.4781 24.8246 32.5489 25.9908 31.2946C26.1475 31.1248 26.204 30.9419 26.1997 30.759C26.8872 30.637 27.5834 30.5151 28.2709 30.3932C30.6685 29.9707 33.0792 29.496 35.281 28.4117C39.2886 26.4345 42.6044 21.6267 41.1118 17.0323C40.9465 16.514 40.6636 15.5254 40.0675 15.36C39.7107 15.2642 39.2407 15.3077 38.8752 15.2946C38.4749 15.2772 38.0789 15.2642 37.683 15.2467C36.2775 15.1901 34.872 15.1335 33.4708 15.0812C32.6136 12.5989 30.8252 10.452 28.4885 9.23258C26.0082 7.93481 23.1276 7.74319 20.4907 8.56627C20.3601 5.96638 20.2339 3.36649 20.1034 0.770956C20.0729 0.174331 19.2592 -0.304711 18.8154 0.2353C14.7947 5.11717 10.7784 10.0382 7.43221 15.4122C4.0773 20.8167 1.43601 26.7437 0.461306 33.0627C-0.00429143 36.0981 -0.113076 39.1553 0.121898 42.2037C0.195872 43.1313 0.300305 44.0546 0.435197 44.9778C0.496117 45.3828 1.00523 45.6049 1.36639 45.5048C1.77107 45.3915 1.93642 45.0344 1.89726 44.6556C1.90161 44.6294 1.89726 44.6033 1.89291 44.5728C0.9182 37.9882 1.78412 31.2772 4.19478 25.0845C6.39223 19.4231 9.75584 14.2799 13.3892 9.45033C15.0993 7.1727 16.8877 4.95604 18.6936 2.75245C18.8067 5.04314 18.9242 7.33383 19.0373 9.62017C19.0634 10.2386 19.6465 10.4999 20.173 10.2734C22.6054 9.21951 25.5339 9.3371 27.8619 10.6044C29.9593 11.7454 31.5301 13.7182 32.1959 16.0088C32.2873 16.3398 32.5875 16.5532 32.9226 16.5663C34.6022 16.636 36.2775 16.7013 37.9571 16.7666C37.9614 16.8058 37.9614 16.8493 37.9745 16.8972C37.9876 16.9539 38.0006 17.0105 38.018 17.0627C38.0659 17.1934 38.1137 17.3153 38.1834 17.4373C38.2095 17.4852 38.2399 17.5331 38.2747 17.581C38.3574 17.6855 38.4357 17.8031 38.5315 17.8989C38.6272 17.9903 38.7447 18.0774 38.8535 18.1515C38.897 18.182 38.9449 18.2168 38.9927 18.2386C39.1146 18.3039 39.2407 18.3561 39.3713 18.3997C39.4279 18.4171 39.4844 18.4302 39.541 18.4389C39.6585 18.4737 39.7803 18.4781 39.8978 18.4607C40.2546 21.0649 38.8056 23.8172 36.8867 25.5418C34.1105 28.0284 30.1812 28.5293 26.6566 29.152C24.3286 29.5614 22.0006 29.9751 19.6683 30.3845C18.7153 30.5543 19.12 32.0088 20.0729 31.839C21.4915 31.5908 22.91 31.3382 24.3329 31.09C23.7586 32.2222 23.7629 33.6027 24.2329 34.8047C24.9117 36.5249 26.3389 37.7312 27.7183 38.8853C31.021 41.6332 34.3237 44.3899 37.622 47.1379C39.2582 48.5053 40.8943 49.864 42.5304 51.2271C42.5304 52.4204 42.4651 53.618 42.3433 54.8069C42.3346 54.9506 42.3172 55.0987 42.3041 55.2424C42.2606 55.6474 42.6827 55.9958 43.0569 55.9958C43.5051 55.9958 43.7705 55.6474 43.814 55.2424C43.8532 54.8504 43.8924 54.4628 43.9228 54.0753C43.9794 53.3654 44.0142 52.6512 44.0316 51.9413C44.0447 51.471 44.049 50.9963 44.036 50.526C44.0316 50.0905 44.0186 49.6507 43.9968 49.2152C43.9098 47.508 43.814 45.6833 43.0613 44.1199C42.3259 42.587 40.903 41.8292 39.4104 41.189C38.0528 40.6011 36.8214 39.9435 35.9816 38.6675C35.3506 37.7007 34.9764 36.5685 34.9546 35.4231C35.603 35.4231 35.925 34.9179 35.925 34.4171C35.925 34.2821 35.9032 34.1471 35.8554 34.0208C36.7822 33.729 37.6743 33.3414 38.4096 32.6751C38.8578 32.2701 39.1798 31.7737 39.4409 31.238C39.702 30.7154 39.9283 30.1624 40.4156 29.8009C40.8725 29.4656 41.4295 29.2827 41.9604 29.1085C42.6435 28.8864 43.3441 28.7035 44.0447 28.551C45.4502 28.2505 46.8818 28.1242 48.3134 28.1373C48.3395 28.1373 48.3569 28.133 48.383 28.1286C48.6963 28.2026 49.0879 28.0894 49.2228 27.7846C49.8276 26.4084 50.4281 25.041 51.033 23.6692C52.4037 26.1428 53.213 28.8733 54.0093 31.5864C55.0188 35.0225 56.1894 38.3845 57.6297 41.6637C57.634 41.6768 57.6384 41.6855 57.6471 41.6898C57.8255 42.0426 58.3433 42.1123 58.6609 41.9337C59.0438 41.716 59.0917 41.2718 58.9307 40.9016Z" fill="#49999E"/>
<path d="M42.0427 33.0673C43.0174 33.0673 43.0174 31.5562 42.0427 31.5562C41.0724 31.5562 41.0724 33.0673 42.0427 33.0673Z" fill="#49999E"/>
<path d="M27.5003 15.5168C27.5003 14.8461 26.9564 14.3018 26.2863 14.3018C25.6118 14.3018 25.0723 14.8461 25.0723 15.5168C25.0723 16.1918 25.6118 16.7362 26.2863 16.7362C26.9564 16.7318 27.5003 16.1874 27.5003 15.5168Z" fill="#49999E"/>
<path d="M74.2387 9.58936C77.9765 9.58936 80.7788 11.6797 81.4228 14.9198H77.4761C77.0801 13.6873 75.8269 12.8294 74.1778 12.8294C71.7976 12.8294 70.4182 14.6672 70.4182 17.3847C70.4182 20.2894 71.9629 21.9007 74.1778 21.9007C75.7878 21.9007 77.0801 21.0646 77.4761 19.8321H81.4228C80.7744 23.0722 77.9765 25.1626 74.2387 25.1626C69.6654 25.1626 66.5498 22.0488 66.5498 17.3629C66.5542 12.7031 69.6654 9.58936 74.2387 9.58936Z" fill="#F06A44"/>
<path d="M82.8848 21.9005C82.8848 19.8711 84.4513 18.6387 86.8141 18.3905L90.0515 18.0551V17.8679C90.0515 16.7617 89.3814 16.3436 88.2761 16.3436C87.1274 16.3436 86.4181 16.8445 86.3528 17.6196H83.1154C83.1981 15.2157 85.1605 13.6479 88.4197 13.6479C91.7006 13.6479 93.5152 15.0894 93.5152 18.164V24.9577H90.5301L90.3648 23.329C89.7599 24.4351 88.2326 25.1667 86.5617 25.1667C84.4513 25.1624 82.8848 23.8864 82.8848 21.9005ZM90.0515 20.4373V20.1673L87.6713 20.4199C86.7096 20.5244 86.3354 20.986 86.3354 21.5086C86.3354 22.1357 86.7531 22.5755 87.6321 22.5755C89.0463 22.5712 90.0297 21.5478 90.0515 20.4373Z" fill="#F06A44"/>
<path d="M95.356 21.4215H98.5716C98.6151 22.2358 99.3027 22.6974 100.286 22.6974C101.226 22.6974 101.687 22.3011 101.687 21.735C101.687 21.1297 101.143 20.9206 100.704 20.8553L98.8675 20.5418C96.6135 20.1672 95.3995 19.0567 95.3995 17.3017C95.3995 15.085 97.3228 13.6436 100.121 13.6436C102.919 13.6436 104.82 15.085 104.864 17.2189H101.813C101.752 16.5091 101.104 16.0692 100.164 16.0692C99.3505 16.0692 98.8284 16.4264 98.8284 16.9881C98.8284 17.5935 99.4767 17.7415 99.9554 17.8025L101.94 18.1378C104.215 18.4949 105.155 19.7884 105.155 21.3779C105.155 23.6555 103.232 25.1623 100.308 25.1623C97.3184 25.1623 95.3951 23.6555 95.356 21.4215Z" fill="#F06A44"/>
<path d="M106.448 21.9005C106.448 19.8711 108.014 18.6387 110.377 18.3905L113.614 18.0551V17.8679C113.614 16.7617 112.944 16.3436 111.839 16.3436C110.69 16.3436 109.981 16.8445 109.916 17.6196H106.678C106.761 15.2157 108.724 13.6479 111.983 13.6479C115.264 13.6479 117.078 15.0894 117.078 18.164V24.9577H114.093L113.928 23.329C113.323 24.4351 111.796 25.1667 110.125 25.1667C108.014 25.1624 106.448 23.8864 106.448 21.9005ZM113.61 20.4373V20.1673L111.23 20.4199C110.268 20.5244 109.894 20.986 109.894 21.5086C109.894 22.1357 110.312 22.5755 111.191 22.5755C112.609 22.5712 113.588 21.5478 113.61 20.4373Z" fill="#F06A44"/>
<path d="M74.304 43.3571H67.2243L66.5542 40.4916L74.1386 31.4595H78.2333V40.3261H80.0913V43.3571H78.2333V46.2009H74.3084V43.3571H74.304ZM74.304 40.3479V36.1454L70.8142 40.3479H74.304Z" fill="#F06A44"/>
<path d="M99.1373 36.1891C99.1373 39.4727 96.8398 41.3541 93.3717 41.3541H90.0734V46.2054H86.3965V31.0503H93.3717C96.8833 31.0459 99.1373 33.1145 99.1373 36.1891ZM95.2733 36.2501C95.2733 34.9523 94.3769 34.347 93.0367 34.347H90.0734V38.1924H93.041C94.4987 38.1967 95.2733 37.4216 95.2733 36.2501Z" fill="#F06A44"/>
<path d="M100.473 43.1481C100.473 41.1187 102.04 39.8863 104.402 39.638L107.64 39.3027V39.1154C107.64 38.0093 106.97 37.5912 105.864 37.5912C104.716 37.5912 104.006 38.092 103.941 38.8672H100.704C100.786 36.4633 102.749 34.8955 106.008 34.8955C109.289 34.8955 111.104 36.337 111.104 39.4116V46.2053H108.119L107.953 44.5765C107.348 45.6827 105.821 46.4143 104.15 46.4143C102.04 46.4099 100.473 45.1339 100.473 43.1481ZM107.636 41.6848V41.4148L105.255 41.6674C104.294 41.7719 103.919 42.2336 103.919 42.7562C103.919 43.3833 104.337 43.8231 105.216 43.8231C106.635 43.8188 107.618 42.7953 107.636 41.6848Z" fill="#F06A44"/>
<path d="M114.572 42.5863V37.9004H112.357V35.1002H114.572V31.7773H118.04V35.1002H120.507V37.9004H118.04V41.9156C118.04 42.8781 118.144 43.5269 119.545 43.5269C119.815 43.5269 120.089 43.5052 120.359 43.4834V46.1617C119.628 46.3272 118.793 46.3925 118.188 46.3925C114.572 46.3881 114.572 43.7577 114.572 42.5863Z" fill="#F06A44"/>
<path d="M121.734 43.1481C121.734 41.1187 123.3 39.8863 125.663 39.638L128.901 39.3027V39.1154C128.901 38.0093 128.23 37.5912 127.125 37.5912C125.976 37.5912 125.267 38.092 125.202 38.8672H121.965C122.047 36.4633 124.01 34.8955 127.269 34.8955C130.55 34.8955 132.364 36.337 132.364 39.4116V46.2053H129.379L129.214 44.5765C128.609 45.6827 127.082 46.4143 125.411 46.4143C123.3 46.4099 121.734 45.1339 121.734 43.1481ZM128.901 41.6848V41.4148L126.52 41.6674C125.559 41.7719 125.185 42.2336 125.185 42.7562C125.185 43.3833 125.602 43.8231 126.481 43.8231C127.895 43.8188 128.879 42.7953 128.901 41.6848Z" fill="#F06A44"/>
<path d="M134.205 42.669H137.421C137.464 43.4834 138.152 43.945 139.135 43.945C140.075 43.945 140.536 43.5487 140.536 42.9826C140.536 42.3772 139.992 42.1682 139.553 42.1029L137.717 41.7893C135.463 41.4148 134.249 40.3043 134.249 38.5492C134.249 36.3326 136.172 34.8911 138.97 34.8911C141.768 34.8911 143.669 36.3326 143.713 38.4665H140.663C140.602 37.7567 139.953 37.3168 139.013 37.3168C138.2 37.3168 137.677 37.6739 137.677 38.2357C137.677 38.841 138.326 38.9891 138.804 39.0501L140.789 39.3854C143.064 39.7425 144.004 41.0359 144.004 42.6255C144.004 44.9031 142.081 46.4099 139.157 46.4099C136.168 46.4099 134.244 44.9031 134.205 42.669Z" fill="#F06A44"/>
</g>
<defs>
<clipPath id="clip0_1_148">
<rect width="144" height="56" fill="white"/>
</clipPath>
</defs>
</svg>
